<svg xmlns="http://www.w3.org/2000/svg" viewBox="0 0 416.67 376.24"><defs><style>.cls-1{font-size:40px;font-family:NotoSansKR-Black-KSCpc-EUC-H, Noto Sans KR;letter-spacing:0.01em;}.cls-2{font-size:30px;font-family:NotoSansKR-Bold-KSCpc-EUC-H, Noto Sans KR;font-weight:700;letter-spacing:-0.02em;}.cls-3,.cls-7{letter-spacing:0.01em;}.cls-4{letter-spacing:0em;}.cls-5{letter-spacing:0em;}.cls-6{letter-spacing:0.01em;}.cls-7{font-size:20px;font-family:NotoSansKR-Regular-KSCpc-EUC-H, Noto Sans KR;}.cls-8{letter-spacing:0em;}.cls-9{letter-spacing:0.01em;}.cls-10{letter-spacing:0em;}.cls-11{letter-spacing:-0.01em;}.cls-12{letter-spacing:-0.01em;}.cls-13{letter-spacing:-0.01em;}.cls-14{letter-spacing:0.01em;}.cls-15{letter-spacing:0.01em;}.cls-16{letter-spacing:-0.01em;}.cls-17{letter-spacing:-0.01em;}.cls-18{letter-spacing:0em;}</style></defs><title>Asset 3</title><g id="Layer_2" data-name="Layer 2"><g id="Layer_1-2" data-name="Layer 1"><text class="cls-1" transform="translate(0.88 35.2)">Hun Chang Cho<tspan class="cls-2"><tspan x="0" y="100">S</tspan><tspan class="cls-3" x="18.09" y="100">till G</tspan><tspan class="cls-4" x="88.83" y="100">r</tspan><tspan class="cls-5" x="101.85" y="100">o</tspan><tspan class="cls-6" x="120.69" y="100">wing</tspan></tspan><tspan class="cls-7"><tspan x="0" y="175">- My name is Hun Chang Ch</tspan><tspan class="cls-8" x="256.92" y="175">o</tspan><tspan class="cls-9" x="269.02" y="175">, who d</tspan><tspan class="cls-10" x="337.64" y="175">r</tspan><tspan class="cls-11" x="345.38" y="175">e</tspan><tspan x="356.33" y="175">ams </tspan><tspan x="0" y="200">of be</tspan><tspan class="cls-12" x="47.54" y="200">c</tspan><tspan x="57.44" y="200">oming a full-</tspan><tspan class="cls-13" x="176.88" y="200">s</tspan><tspan class="cls-12" x="186" y="200">t</tspan><tspan class="cls-9" x="193.26" y="200">ack d</tspan><tspan class="cls-14" x="243.64" y="200">e</tspan><tspan class="cls-15" x="255.02" y="200">v</tspan><tspan class="cls-9" x="265.56" y="200">eloper and is </tspan><tspan x="0" y="225">g</tspan><tspan class="cls-10" x="11.46" y="225">r</tspan><tspan class="cls-15" x="19.2" y="225">o</tspan><tspan class="cls-9" x="31.44" y="225">wing.</tspan><tspan x="0" y="250">I am </tspan><tspan class="cls-15" x="45.62" y="250">w</tspan><tspan class="cls-9" x="61.78" y="250">orking on p</tspan><tspan class="cls-8" x="169.58" y="250">r</tspan><tspan class="cls-9" x="177.32" y="250">oje</tspan><tspan class="cls-10" x="206.62" y="250">ct</tspan><tspan class="cls-9" x="224.3" y="250">s </tspan><tspan class="cls-8" x="238.54" y="250">r</tspan><tspan class="cls-9" x="246.28" y="250">el</tspan><tspan class="cls-16" x="263.46" y="250">at</tspan><tspan class="cls-9" x="282.08" y="250">ed </tspan><tspan class="cls-16" x="310.63" y="250">t</tspan><tspan x="318.07" y="250">o Python </tspan><tspan x="0" y="275">and ML / DL, and I am also </tspan><tspan class="cls-15" x="252.22" y="275">w</tspan><tspan class="cls-9" x="268.38" y="275">orking on p</tspan><tspan class="cls-8" x="376.17" y="275">r</tspan><tspan x="383.91" y="275">o</tspan><tspan x="396.23" y="275">-</tspan><tspan x="0" y="300">je</tspan><tspan class="cls-8" x="16.98" y="300">ct</tspan><tspan x="34.66" y="300">s and l</tspan><tspan class="cls-17" x="95.98" y="300">e</tspan><tspan x="106.94" y="300">arning </tspan><tspan class="cls-8" x="173.06" y="300">r</tspan><tspan x="180.8" y="300">el</tspan><tspan class="cls-18" x="197.98" y="300">at</tspan><tspan x="216.6" y="300">ed </tspan><tspan class="cls-18" x="245.16" y="300">t</tspan><tspan class="cls-9" x="252.6" y="300">o We</tspan><tspan class="cls-8" x="298.64" y="300">b</tspan><tspan class="cls-9" x="310.98" y="300">.</tspan></tspan></text></g></g></svg>